<svg width="257" height="257" version="1.1" xmlns="http://www.w3.org/2000/svg" xmlns:xlink="http://www.w3.org/1999/xlink"><path d="M208.17 33.53L208.17 33.53Q208.17 37.90 203.03 42.27L203.03 42.27Q201.23 43.81 200.20 44.84L200.20 44.84L175.79 69.51Q163.45 80.56 151.12 85.96L151.12 85.96L146.23 85.96L146.23 84.16Q191.21 42.27 187.10 20.17L187.10 20.17L189.15 18.37Q200.20 18.88 208.17 33.53ZM211.51 91.10L211.51 91.10Q210.23 93.67 203.54 98.81L203.54 98.81Q201.49 100.35 200.46 101.38L200.46 101.38Q187.35 115.26 168.34 129.65L168.34 129.65Q153.17 140.96 147.52 140.70L147.52 140.70Q144.43 140.70 144.43 138.64L144.43 138.64L144.95 137.62Q178.62 109.09 188.38 92.64L188.38 92.64Q190.95 88.27 192.49 84.42L192.49 84.42L192.75 76.45Q193.26 74.65 194.81 74.14L194.81 74.14Q205.09 76.19 209.97 86.22L209.97 86.22Q211.00 88.53 211.51 91.10ZM114.37 227.31L114.37 227.31L114.37 226.54Q148.03 201.09 159.08 191.07L159.08 191.07Q187.87 165.11 195.83 141.21L195.83 141.21Q196.86 138.64 197.89 127.08L197.89 127.08L204.31 127.08Q221.28 133.76 221.28 141.21L221.28 141.21Q221.28 142.76 214.85 149.44L214.85 149.44L213.57 150.72Q186.33 181.56 179.39 188.76L179.39 188.76Q152.66 215.49 126.19 225.51L126.19 225.51Q117.96 228.59 114.37 227.31ZM127.22 107.29L127.22 107.29Q126.96 113.46 126.96 125.54L126.96 125.54L128.50 162.29Q127.99 190.04 115.91 199.30L115.91 199.30L111.28 197.75Q97.92 182.59 86.35 172.05L86.35 172.05L87.64 170.77L104.34 175.14Q106.91 175.65 109.23 175.65L109.23 175.65L111.54 171.28Q114.62 140.70 115.39 109.35L115.39 109.35Q94.32 110.63 77.10 115.26L77.10 115.26Q75.30 156.12 47.55 184.90L47.55 184.90Q37.27 195.95 23.90 203.66L23.90 203.66Q20.05 204.18 19.28 202.38L19.28 202.38Q59.11 166.40 65.79 118.08L65.79 118.08Q63.22 118.34 46.00 122.71L46.00 122.71Q27.76 127.59 18.76 119.88L18.76 119.88Q16.96 118.34 15.16 116.28L15.16 116.28Q15.16 113.20 18.50 112.43L18.50 112.43L66.56 107.29L67.33 105.23L68.36 69.00Q67.85 48.18 60.14 36.36L60.14 36.36Q59.11 29.93 75.30 37.13L75.30 37.13Q96.38 33.27 110.51 26.08L110.51 26.08Q119.25 26.08 131.33 35.07L131.33 35.07Q132.35 37.39 130.04 43.04L130.04 43.04L129.53 44.07Q127.22 51.52 127.22 95.72L127.22 95.72Q145.21 95.72 148.03 100.35L148.03 100.35L149.06 102.92Q149.06 105.23 130.81 106.78L130.81 106.78Q127.99 107.03 127.22 107.29ZM78.90 104.98L115.14 98.55L115.14 52.03Q114.88 41.50 113.85 39.96L113.85 39.96Q111.54 37.13 108.45 37.13L108.45 37.13L81.47 43.30L79.16 103.43Q78.90 104.21 78.90 104.98L78.90 104.98ZM89.18 60.00L89.18 60.00Q103.31 66.17 106.40 74.14L106.40 74.14L107.17 79.79L107.17 80.05Q107.17 87.50 100.23 82.87L100.23 82.87Q92.52 77.99 88.92 69.00L88.92 69.00Q86.35 62.83 89.18 60.00Z" stroke="#000" fill="black" /></svg>