<svg width="257" height="257" version="1.1" xmlns="http://www.w3.org/2000/svg" xmlns:xlink="http://www.w3.org/1999/xlink"><path d="M205.09 149.57L205.09 149.57L204.57 151.37Q195.32 162.17 192.75 190.18L192.75 190.18Q189.92 217.42 187.87 224.36L187.87 224.36Q184.27 238.24 175.53 244.15L175.53 244.15L172.19 243.64Q162.42 231.04 148.03 217.68L148.03 217.68L148.03 216.14Q157.80 216.14 167.82 216.91L167.82 216.91Q175.02 212.28 181.96 149.06L181.96 149.06Q179.39 144.18 171.42 144.18L171.42 144.18Q141.09 144.18 113.85 149.06L113.85 149.06L113.08 151.12L113.08 177.07L135.44 170.91Q135.44 169.88 132.10 163.71L132.10 163.71Q129.53 159.08 132.10 156.26L132.10 156.26Q141.86 159.34 150.34 169.62L150.34 169.62Q160.11 181.44 154.46 190.18L154.46 190.18Q152.66 192.75 149.57 192.75L149.57 192.75Q144.69 188.12 138.52 175.53L138.52 175.53L137.24 175.53L95.35 194.81Q88.15 198.40 82.24 202.26L82.24 202.26L78.64 202.26Q68.11 196.09 65.02 191.98L65.02 191.98Q65.02 187.10 68.11 187.10L68.11 187.10Q73.50 187.10 89.69 182.73L89.69 182.73Q96.38 180.93 101.00 180.67L101.00 180.67L101.26 151.89Q88.15 151.37 57.05 161.14L57.05 161.14Q53.97 162.17 50.63 163.20L50.63 163.20Q50.63 164.48 52.17 191.72L52.17 191.72Q54.48 229.50 45.49 229.50L45.49 229.50Q36.24 221.53 38.04 205.60L38.04 205.60L40.09 188.64L40.09 187.61Q40.09 169.36 31.35 152.66L31.35 152.66Q32.38 148.03 43.95 151.89L43.95 151.89Q45.23 152.40 46.00 152.66L46.00 152.66Q52.94 152.14 78.90 146.75L78.90 146.75Q92.01 143.92 101.00 143.66L101.00 143.66L101.77 123.10Q97.40 123.10 82.24 126.70L82.24 126.70Q80.70 127.22 79.41 127.47L79.41 127.47Q79.41 130.81 78.39 132.36L78.39 132.36Q70.93 129.53 66.31 116.16L66.31 116.16Q62.97 107.43 61.68 105.11L61.68 105.11L56.54 96.12Q55.51 93.81 55.51 91.75L55.51 91.75Q65.53 93.03 89.18 88.15L89.18 88.15Q96.12 86.61 100.49 86.10L100.49 86.10L101.26 85.07Q100.74 71.19 95.86 58.08L95.86 58.08Q90.72 58.85 68.88 64.51L68.88 64.51L66.82 65.02L66.05 64.25L66.82 62.45Q98.43 47.29 109.23 40.09L109.23 40.09Q111.80 38.55 113.85 36.75L113.85 36.75Q117.45 33.92 119.51 28.78L119.51 28.78Q120.53 26.21 122.33 24.16L122.33 24.16L126.19 24.67L141.86 31.35Q145.98 33.92 148.29 37.52L148.29 37.52Q148.29 40.35 142.12 41.38L142.12 41.38Q140.32 41.89 139.55 42.15L139.55 42.15L106.40 54.48Q115.91 61.94 116.16 65.79L116.16 65.79L114.37 81.47L114.37 81.98Q120.28 81.47 133.90 75.82L133.90 75.82Q147.00 70.16 156.00 74.27L156.00 74.27Q158.57 75.30 161.14 77.10L161.14 77.10L168.08 81.73L169.62 84.30Q170.13 85.84 169.36 87.64L169.36 87.64Q168.85 89.18 163.71 92.52L163.71 92.52Q160.63 94.83 154.71 104.86L154.71 104.86L153.94 106.40L157.54 110.51Q157.80 111.54 157.80 112.31L157.80 112.31L156.26 113.59Q124.64 117.45 114.37 120.02L114.37 120.02Q113.59 124.13 113.59 141.09L113.59 141.09Q135.44 141.09 167.56 135.70L167.56 135.70L180.67 132.87L181.19 132.87Q186.58 132.36 197.63 140.84L197.63 140.84Q204.57 146.23 205.09 149.57ZM146.49 86.35L146.49 86.35Q143.66 80.44 117.96 88.41L117.96 88.41L114.62 89.18L114.62 112.31L140.84 105.11Q145.98 91.24 146.49 86.35ZM78.64 120.02L101.26 115.39L101.00 92.01Q91.75 93.81 73.76 98.69L73.76 98.69Q76.07 111.02 78.64 120.02L78.64 120.02Z" stroke="#000" fill="black" /></svg>