<?xml version="1.0" encoding="UTF-8" standalone="no"?>
        <svg 
    viewBox="10.3271484375 -85.9130859375 447.8759765625 56.7626953125"
    width="437.548828125"
    height="142.67578125"
   xmlns="http://www.w3.org/2000/svg"
   xmlns:svg="http://www.w3.org/2000/svg">
   <path d="M58.37-42.92L58.37-89.58L58.37-97.34L78.44-89.58L88.48-89.58L88.48-101.22L56.25-101.22Q52.22-94.41 47.02-86.50Q41.82-78.59 36.91-72.58L36.91-72.58Q46.00-66.87 51.27-58.89Q56.54-50.90 58.37-42.92L58.37-42.92ZM10.33 14.43L10.33-116.53L10.33-124.66L32.23-116.53L37.50-116.53L47.24-125.98L66.14-108.91Q64.45-106.79 59.40-106.79L59.40-106.79L58.67-105.47L88.48-105.47L88.48-126.93L114.33-124.37Q114.11-122.75 113.01-121.69Q111.91-120.63 108.76-120.12L108.76-120.12L108.76-105.47L118.95-105.47L129.27-119.53Q129.27-119.53 131.14-117.99Q133.01-116.46 135.90-114.00Q138.79-111.55 141.94-108.80Q145.09-106.05 147.58-103.64L147.58-103.64Q146.92-101.22 143.26-101.22L143.26-101.22L108.76-101.22L108.76-89.58L117.11-89.58L125.83-98.88L143.70-85.47Q143.04-84.74 141.72-83.94Q140.41-83.13 138.28-82.62L138.28-82.62L138.28-39.77Q138.21-39.26 135.50-38.16Q132.79-37.06 129.02-36.15Q125.24-35.23 122.09-35.23L122.09-35.23L118.65-35.23L118.65-43.07L109.94-43.07Q113.96-34.42 120.45-28.56Q126.93-22.71 134.40-19.04Q141.87-15.38 148.97-13.33L148.97-13.33L148.68-12.01Q142.82-10.18 138.87-4.76Q134.91 0.66 133.37 8.13L133.37 8.13Q126.78 2.05 122.06-4.91Q117.33-11.87 114.11-20.73Q110.89-29.59 108.76-41.53L108.76-41.53L108.76 7.03Q108.76 8.13 106.27 9.78Q103.78 11.43 100.01 12.78Q96.24 14.14 92.43 14.14L92.43 14.14L88.48 14.14L88.48-19.63Q79.83-10.84 68.33-3.99Q56.84 2.86 42.77 7.98L42.77 7.98L41.53 6.30Q55.52-2.71 65.59-15.78Q75.66-28.86 81.15-43.07L81.15-43.07L77.56-43.07L77.56-39.62Q77.56-38.67 75.11-37.24Q72.66-35.82 68.88-34.72Q65.11-33.62 61.08-33.62L61.08-33.62L59.25-33.62Q59.03-23.00 53.98-16.66Q48.93-10.33 36.47-10.18L36.47-10.18Q36.47-14.36 35.93-19.26Q35.38-24.17 34.50-26.07L34.50-26.07Q33.40-28.27 30.32-29.74L30.32-29.74L30.32 8.13Q30.32 8.86 28.34 10.36Q26.37 11.87 22.71 13.15Q19.04 14.43 13.92 14.43L13.92 14.43L10.33 14.43ZM88.48-47.24L88.48-64.53L77.56-64.53L77.56-47.24L88.48-47.24ZM118.65-64.53L108.76-64.53L108.76-47.24L118.65-47.24L118.65-64.53ZM77.56-68.70L88.48-68.70L88.48-85.33L77.56-85.33L77.56-68.70ZM108.76-85.33L108.76-68.70L118.65-68.70L118.65-85.33L108.76-85.33ZM38.82-112.35L30.32-112.35L30.32-32.23L35.23-32.23Q37.13-32.23 38.23-33.03L38.23-33.03Q40.80-34.64 40.80-40.65L40.80-40.65Q40.80-48.41 39.11-56.73Q37.43-65.04 33.18-72.14L33.18-72.14Q34.20-77.20 35.34-84.30Q36.47-91.41 37.43-98.88Q38.38-106.35 38.82-112.35L38.82-112.35ZM237.89-39.77L239.28-40.50Q249.24-38.38 254.85-34.83Q260.45-31.27 262.54-27.25Q264.62-23.22 264.00-19.63Q263.38-16.04 260.89-13.81Q258.40-11.57 254.77-11.50Q251.15-11.43 247.34-14.58L247.34-14.58Q247.12-16.55 246.68-18.60Q246.24-20.65 245.73-22.63L245.73-22.63Q237.01-19.48 225.55-15.78Q214.09-12.08 199.37-7.76L199.37-7.76Q197.75-4.83 194.68-4.32L194.68-4.32L186.47-26.88Q190.94-26.88 197.97-26.99Q205.00-27.10 213.72-27.32L213.72-27.32L213.72-44.53L184.64-44.53L184.64 7.62Q184.64 8.72 181.93 10.33Q179.22 11.94 175.05 13.26Q170.87 14.58 166.48 14.58L166.48 14.58L163.33 14.58L163.33-57.42L186.33-48.78L213.72-48.78L213.72-64.67L196.22-64.67L196.22-61.38Q196.22-60.35 193.43-58.85Q190.65-57.35 186.44-56.14Q182.23-54.93 177.91-54.93L177.91-54.93L174.90-54.93L174.90-101.22L197.39-92.72L213.72-92.72L213.72-106.35Q200.90-106.20 187.98-106.49Q175.05-106.79 162.89-107.67L162.89-107.67L162.74-110.08Q176.37-111.04 191.09-112.83Q205.81-114.62 220.09-117.08Q234.38-119.53 246.72-122.35Q259.06-125.17 267.92-128.10L267.92-128.10L286.38-110.23Q285.13-109.20 282.46-109.09Q279.79-108.98 275.83-110.52L275.83-110.52Q267.04-109.28 256.64-108.40Q246.24-107.52 234.74-106.93L234.74-106.93L234.74-92.72L251.51-92.72L261.04-103.05L280.66-88.33Q280.00-87.45 278.58-86.46Q277.15-85.47 274.80-85.03L274.80-85.03L274.80-61.82Q274.73-61.23 271.73-59.99Q268.73-58.74 264.55-57.71Q260.38-56.69 256.79-56.69L256.79-56.69L253.05-56.69L253.05-64.67L234.74-64.67L234.74-48.78L263.09-48.78L272.39-59.25L292.24-44.24Q291.50-43.36 290.11-42.44Q288.72-41.53 286.38-41.09L286.38-41.09L286.38-8.28Q286.38-1.76 284.51 2.97Q282.64 7.69 276.93 10.55Q271.22 13.40 259.50 14.43L259.50 14.43Q259.13 9.45 258.36 5.90Q257.59 2.34 255.62 0L255.62 0Q253.71-2.27 250.85-3.99Q248.00-5.71 241.77-6.74L241.77-6.74L241.77-8.57Q241.77-8.57 244.19-8.42Q246.61-8.28 250.05-8.09Q253.49-7.91 256.71-7.76Q259.94-7.62 261.62-7.62L261.62-7.62Q264.62-7.62 264.62-10.47L264.62-10.47L264.62-44.53L234.74-44.53L234.74-28.20L243.60-28.64Q242.36-31.71 240.86-34.53Q239.36-37.35 237.89-39.77L237.89-39.77ZM253.05-68.85L253.05-88.48L234.74-88.48L234.74-68.85L253.05-68.85ZM196.22-88.48L196.22-68.85L213.72-68.85L213.72-88.48L196.22-88.48ZM338.82-101.51L340.21-102.17Q350.39-98.51 355.81-93.75Q361.23-88.99 362.92-84.19Q364.60-79.39 363.43-75.44Q362.26-71.48 359.22-69.25Q356.18-67.02 352.19-67.38Q348.19-67.75 344.24-71.70L344.24-71.70Q344.90-79.47 343.21-87.34Q341.53-95.21 338.82-101.51L338.82-101.51ZM417.48-127.51L417.48-127.51L441.28-112.21Q440.48-110.96 439.27-110.63Q438.06-110.30 435.42-110.82L435.42-110.82Q426.12-102.54 414.48-95.32Q402.83-88.11 391.77-82.98L391.77-82.98L390.75-84.74Q398.51-93.16 405.18-104.37Q411.84-115.58 417.48-127.51ZM420.78-89.58L420.78-89.58L445.68-75Q444.87-73.75 443.55-73.39Q442.24-73.02 439.67-73.54L439.67-73.54Q429.79-63.06 417.22-54.93Q404.66-46.80 391.48-41.53L391.48-41.53L390.60-43.51Q400.05-52.15 407.41-63.94Q414.77-75.73 420.78-89.58ZM421.80-46.07L421.80-46.07L447.88-33.03Q447.22-31.64 445.83-31.09Q444.43-30.54 441.72-30.91L441.72-30.91Q429.71-14.14 414.44-3.22Q399.17 7.69 380.27 14.14L380.27 14.14L379.47 12.30Q393.68 2.20 403.93-12.19Q414.18-26.59 421.80-46.07ZM365.41-61.96L365.41-109.79L337.94-109.79L337.94-68.55L337.79-58.37L365.41-61.96ZM310.77-31.20L302.71-54.57L319.63-56.25L319.63-68.55L319.63-121.36L340.80-113.96L363.87-113.96L372.58-123.93L390.60-109.79Q389.79-108.91 388.33-108.00Q386.87-107.08 384.59-106.64L384.59-106.64L384.59-64.53L397.63-66.28L397.92-64.38L384.59-58.81L384.59-9.59Q384.59-3.08 383.02 1.50Q381.45 6.08 376.32 8.83Q371.19 11.57 360.57 12.45L360.57 12.45Q360.13 7.84 359.40 4.39Q358.67 0.95 356.98-1.17L356.98-1.17Q355.22-3.37 352.40-4.94Q349.58-6.52 343.95-7.47L343.95-7.47L343.95-9.45Q343.95-9.45 346.29-9.30Q348.63-9.16 351.93-8.97Q355.22-8.79 358.15-8.68Q361.08-8.57 362.26-8.57L362.26-8.57Q364.16-8.57 364.78-9.34Q365.41-10.11 365.41-11.72L365.41-11.72L365.41-51.42Q359.11-49.22 352.00-46.77Q344.90-44.31 336.91-41.67L336.91-41.67Q335.74-31.64 332.89-21.68Q330.03-11.72 324.35-2.53Q318.68 6.67 309.16 14.43L309.16 14.43L307.47 13.33Q313.04 2.42 315.53-10.14Q318.02-22.71 318.90-35.82L318.90-35.82L315.45-34.79Q313.77-31.86 310.77-31.20L310.77-31.20Z"/>
    </svg>
        