<svg width="257" height="257" version="1.1" xmlns="http://www.w3.org/2000/svg" xmlns:xlink="http://www.w3.org/1999/xlink"><path d="M224.88 199.49L226.67 202.06L225.13 203.34Q197.63 205.91 183.24 204.89L183.24 204.89Q170.39 195.38 140.06 154.26L140.06 154.26Q136.98 149.89 135.18 147.83L135.18 147.83L135.18 218.51Q135.18 234.18 130.81 239.32L130.81 239.32L127.73 242.15Q121.82 241.89 118.48 223.13L118.48 223.13Q117.71 218.76 117.71 216.45L117.71 216.45Q117.71 213.88 119.51 206.94L119.51 206.94Q124.39 190.49 124.13 155.80L124.13 155.80Q124.13 150.40 124.13 147.83L124.13 147.83Q100.49 184.58 68.88 201.54L68.88 201.54Q64.25 204.11 59.37 206.17L59.37 206.17Q49.34 210.03 47.29 210.03L47.29 210.03Q44.98 210.03 42.41 209.51L42.41 209.51L42.41 208.74L75.81 186.12Q106.14 163.77 115.14 140.38L115.14 140.38L99.20 142.43Q98.95 142.69 97.66 145.78L97.66 145.78Q97.40 146.29 96.89 146.55L96.89 146.55L95.35 146.03Q89.69 142.43 86.87 127.01L86.87 127.01Q85.58 120.85 84.81 118.53L84.81 118.53Q80.70 104.66 74.79 93.60L74.79 93.60Q74.79 91.55 76.07 90.52L76.07 90.52Q87.38 93.60 106.91 88.72L106.91 88.72Q118.48 85.89 123.62 85.12L123.62 85.12L124.39 84.35L124.13 66.88L104.60 68.42Q100.23 68.16 96.89 66.88L96.89 66.88Q94.83 66.11 93.03 64.56L93.03 64.56Q93.81 62.25 96.63 61.48L96.63 61.48Q101.00 61.22 121.05 56.85L121.05 56.85L123.62 56.34Q123.62 41.95 113.85 28.84L113.85 28.84L113.85 25.50Q117.71 20.62 131.58 28.58L131.58 28.58Q138.27 32.44 140.06 35.27L140.06 35.27Q141.09 37.06 137.24 50.69L137.24 50.69Q136.98 51.46 136.72 51.97L136.72 51.97L157.54 46.06Q167.05 44.52 172.96 50.43L172.96 50.43Q172.96 53.00 169.62 54.03L169.62 54.03L136.47 63.54L135.18 64.56L134.67 82.30Q139.81 82.55 156.00 79.21L156.00 79.21Q166.79 76.90 174.76 77.67L174.76 77.67L187.61 86.15Q190.44 88.46 192.24 90.78L192.24 90.78Q192.24 94.63 186.84 99.26L186.84 99.26Q184.53 101.06 183.50 102.34L183.50 102.34Q181.70 104.91 172.96 124.96L172.96 124.96L167.56 135.50Q166.28 137.55 165.25 138.32L165.25 138.32Q162.94 140.12 158.57 140.12L158.57 140.12Q156.00 137.81 156.00 135.24L156.00 135.24Q141.61 135.75 135.18 137.81L135.18 137.81Q163.71 165.05 168.08 168.65L168.08 168.65Q187.87 185.61 217.42 196.66L217.42 196.66Q221.02 197.95 224.88 199.49L224.88 199.49ZM167.56 88.98L167.56 88.98L166.02 86.67Q151.63 86.67 135.18 90.01L135.18 90.01L135.18 105.17Q145.98 105.17 148.80 106.45L148.80 106.45Q151.12 107.48 152.14 109.28L152.14 109.28L152.66 112.11Q150.09 113.65 140.58 114.68L140.58 114.68L135.18 115.96L135.70 128.81Q145.46 125.73 154.71 126.50L154.71 126.50Q156.00 126.50 157.03 126.76L157.03 126.76Q164.99 102.34 167.56 88.98ZM124.13 131.13L124.39 118.02L108.71 119.56Q105.37 117.51 104.86 115.71L104.86 115.71L124.39 108.51L124.39 92.32L100.23 97.72Q95.60 99.26 92.01 100.80L92.01 100.80L98.95 136.01L124.13 131.13ZM78.39 62.25L78.39 62.25Q78.39 65.59 72.22 70.47L72.22 70.47L69.13 73.30Q58.85 84.61 56.80 87.44L56.80 87.44Q55.26 89.75 54.48 92.06L54.48 92.06Q54.48 95.66 62.19 106.20L62.19 106.20Q72.47 120.59 72.47 131.13L72.47 131.13Q72.47 138.32 68.11 142.95L68.11 142.95Q65.28 145.78 61.68 144.49L61.68 144.49Q55.00 137.55 37.01 123.67L37.01 123.67L36.75 122.39L51.66 126.50Q57.05 127.27 58.34 124.70L58.34 124.70Q58.34 117.51 50.89 104.14L50.89 104.14Q48.06 98.74 47.03 95.66L47.03 95.66L47.29 90.78L58.85 68.42Q58.85 66.36 56.28 64.56L56.28 64.56Q53.71 64.82 42.92 68.42L42.92 68.42Q42.41 68.68 41.63 68.93L41.63 68.93Q41.12 69.19 34.18 70.22L34.18 70.22Q29.81 70.99 29.81 73.56L29.81 73.56Q29.81 74.59 30.58 76.13L30.58 76.13L29.04 176.87L29.30 202.06Q28.27 220.56 22.87 223.13L22.87 223.13Q20.30 222.88 16.96 217.22L16.96 217.22Q10.79 207.97 14.65 191.52L14.65 191.52Q17.22 179.44 17.48 176.87L17.48 176.87Q22.87 139.09 20.56 101.06L20.56 101.06Q20.05 91.03 18.76 83.58L18.76 83.58Q18.50 80.75 13.62 64.82L13.62 64.82Q12.34 61.22 11.82 58.40L11.82 58.40Q17.48 55.05 26.73 62.25L26.73 62.25Q27.76 63.02 28.78 64.05L28.78 64.05Q46.77 61.99 61.42 51.71L61.42 51.71Q69.39 51.71 78.39 62.25Z" stroke="#000" fill="black" /></svg>